Coordinates
version=1
nRows=17
nColumns=38
inDegrees=no

Units are S.I. units (second, meters, Newtons, ...)
If the header above contains a line with 'inDegrees', this indicates whether rotational values are in degrees (yes) or radians (no).

endheader
time	pelvis_tilt	pelvis_list	pelvis_rotation	pelvis_tx	pelvis_ty	pelvis_tz	hip_flexion_r	hip_adduction_r	hip_rotation_r	knee_angle_r	ankle_angle_r	subtalar_angle_r	mtp_angle_r	hip_flexion_l	hip_adduction_l	hip_rotation_l	knee_angle_l	ankle_angle_l	subtalar_angle_l	mtp_angle_l	lumbar_extension	lumbar_bending	lumbar_rotation	arm_flex_r	arm_add_r	arm_rot_r	elbow_flex_r	pro_sup_r	wrist_flex_r	wrist_dev_r	arm_flex_l	arm_add_l	arm_rot_l	elbow_flex_l	pro_sup_l	wrist_flex_l	wrist_dev_l
0	-0.491029	1.48672	-1.03144	0.866367	1.96924	0.923475	0.142519	0.086961	-0.249254	0.249093	0.0686884	0	0	0.186233	-0.241716	-0.206488	1.30485	-0.162963	0	0	-0.273538	0.0278566	-0.091153	-0.0332394	-0.234557	0.187546	0.4995	1.0554	0	0	-0.0609426	-0.39277	0.51694	0.713783	1.31862	0	0
0.01	-0.304635	1.4978	-1.21862	0.866239	1.95887	0.923786	0.11671	0.0801209	-0.179859	0.216468	0.0694441	0	0	0.216683	-0.220825	-0.200112	1.32132	-0.144124	0	0	-0.264922	0.00836993	-0.0946168	-0.0365527	-0.235707	0.195733	0.496956	1.05148	0	0	-0.0668302	-0.393132	0.514084	0.718891	1.2991	0	0
0.02	-0.41952	1.49136	-1.11687	0.864029	1.95079	0.926622	0.108302	0.0860766	-0.233013	0.223706	0.072605	0	0	0.248419	-0.243627	-0.210887	1.33482	-0.15664	0	0	-0.271399	0.0167736	-0.0788292	-0.030889	-0.238199	0.200022	0.491723	1.05135	0	0	-0.060578	-0.38627	0.510486	0.712606	1.28987	0	0
0.03	-0.204289	1.49979	-1.33357	0.863424	1.94032	0.92724	0.0770337	0.0792603	-0.162427	0.182801	0.0684228	0	0	0.2629	-0.212973	-0.196286	1.33315	-0.116257	0	0	-0.266006	-0.00154723	-0.0860869	-0.0315272	-0.238497	0.214545	0.490638	1.03763	0	0	-0.0647203	-0.350134	0.183034	0.729729	0.322006	0	0
0.04	-0.148815	1.4979	-1.39791	0.862565	1.93091	0.928749	0.0563265	0.0769374	-0.156715	0.170295	0.0709036	0	0	0.281392	-0.210462	-0.198334	1.33455	-0.0975936	0	0	-0.267035	-0.00819096	-0.0727988	-0.036917	-0.242573	0.22145	0.494149	1.02166	0	0	-0.0656239	-0.387207	0.512933	0.722175	1.27292	0	0
0.05	-0.0983288	1.49804	-1.45733	0.861276	1.92168	0.930134	0.0388533	0.0751427	-0.148864	0.158505	0.0722234	0	0	0.30047	-0.206456	-0.199646	1.32969	-0.0756026	0	0	-0.267016	-0.0138717	-0.0638829	-0.0383437	-0.244258	0.22836	0.494762	1.01836	0	0	-0.0640903	-0.386666	0.51765	0.723848	1.25664	0	0
0.06	-0.00486872	1.50197	-1.55943	0.860224	1.91256	0.930757	0.0501821	0.0597864	-0.193213	0.198597	0.10292	0	0	0.322961	-0.19773	-0.201786	1.32099	-0.0529736	0	0	-0.262443	-0.0226773	-0.0561054	-0.0408297	-0.24661	0.23937	0.497367	1.0011	0	0	-0.0636873	-0.385194	0.514939	0.726509	1.25459	0	0
0.07	0.0465637	1.50187	-1.61864	0.859172	1.9033	0.931861	0.0338976	0.057693	-0.187616	0.188036	0.104738	0	0	0.33967	-0.193497	-0.205319	1.30599	-0.0337272	0	0	-0.261335	-0.0280506	-0.0471621	-0.0432224	-0.245244	0.230138	0.495155	1.01279	0	0	-0.0609268	-0.382421	0.511305	0.726888	1.26059	0	0
0.08	0.102628	1.50054	-1.68256	0.858058	1.89406	0.932953	0.0169553	0.0548795	-0.182063	0.178758	0.10788	0	0	0.353987	-0.188369	-0.209139	1.28609	-0.0185959	0	0	-0.261148	-0.0342176	-0.0381697	-0.0461442	-0.244482	0.226979	0.4951	1.00773	0	0	-0.0577051	-0.38072	0.509533	0.729199	1.25501	0	0
0.09	0.164894	1.49939	-1.75366	0.856356	1.88504	0.933986	0.00117979	0.0522093	-0.174408	0.170129	0.111151	0	0	0.36615	-0.181938	-0.213472	1.25949	-0.00529884	0	0	-0.26189	-0.041986	-0.0317827	-0.0460229	-0.241651	0.228079	0.493959	1.00459	0	0	-0.0581529	-0.381068	0.500821	0.736468	1.24755	0	0
0.1	0.218845	1.49696	-1.81578	0.855215	1.876	0.934857	-0.0169908	0.0490851	-0.16556	0.15919	0.114232	0	0	0.376655	-0.176411	-0.219525	1.23038	0.0070202	0	0	-0.263245	-0.0487251	-0.0251162	-0.0468611	-0.240492	0.228853	0.494115	1.00101	0	0	-0.0570549	-0.380182	0.495137	0.741297	1.24139	0	0
0.11	0.26118	1.49433	-1.86371	0.854395	1.86697	0.935553	-0.0364415	0.0464912	-0.157499	0.145978	0.116352	0	0	0.386351	-0.170094	-0.223547	1.1977	0.0224406	0	0	-0.264204	-0.0544895	-0.0191165	-0.0490838	-0.239514	0.228789	0.495257	0.996939	0	0	-0.0532501	-0.379432	0.494773	0.742559	1.23733	0	0
0.12	0.301072	1.49176	-1.90807	0.853695	1.85784	0.936053	-0.0562899	0.0437754	-0.150218	0.131818	0.118236	0	0	0.39456	-0.163297	-0.228235	1.16068	0.037979	0	0	-0.265389	-0.0598712	-0.0164267	-0.0499855	-0.238795	0.233584	0.496596	0.995103	0	0	-0.0519375	-0.379147	0.492223	0.744327	1.23554	0	0
0.13	0.325436	1.48685	-1.93862	0.853521	1.84822	0.936463	-0.079535	0.039739	-0.143053	0.117178	0.121031	0	0	0.399587	-0.158466	-0.236355	1.12473	0.0519603	0	0	-0.268523	-0.0639271	-0.0137369	-0.0510326	-0.241627	0.2443	0.499637	0.994416	0	0	-0.0532504	-0.37634	0.484703	0.747575	1.23439	0	0
0.14	0.335619	1.48417	-1.95364	0.852664	1.8394	0.936727	-0.100558	0.0392513	-0.132048	0.100939	0.120611	0	0	0.404019	-0.154723	-0.245519	1.08057	0.0633417	0	0	-0.271043	-0.0678649	-0.00998461	-0.0506004	-0.2416	0.248987	0.500134	0.989699	0	0	-0.0501485	-0.376077	0.481983	0.748329	1.23522	0	0
0.15	0.34116	1.48191	-1.96468	0.851782	1.83065	0.93674	-0.121201	0.038986	-0.118765	0.0845619	0.119026	0	0	0.404879	-0.150246	-0.245195	1.03009	0.0757592	0	0	-0.273451	-0.0714666	-0.00583425	-0.0501206	-0.243716	0.26368	0.503401	0.958916	0	0	-0.0465907	-0.377995	0.487199	0.75265	1.19998	0	0
0.16	0.167733	1.46807	-1.79295	0.851596	1.82109	0.939372	-0.172743	0.0542548	-0.0805366	0.0436845	0.0953151	0	0	0.389155	-0.162798	-0.271678	0.978092	0.0792362	0	0	-0.293824	-0.0588851	-0.00365731	-0.0469726	-0.245668	0.266917	0.501026	0.960177	0	0	-0.0419523	-0.371367	0.480523	0.744589	1.21197	0	0
